# xmcd
#
# Track frame offsets: 
#        150
#        17234
#        37545
#        62782
#        83566
#        102930
#        122037
#        137426
#        157042
#        175274
#        194118
#        219203
#        240513
#        264414
#        284456
#        305119
#        326056
#
# Disc length: 4587 seconds
#
# Revision: 0
# Processed by: cddbd v1.5.2PL0 Copyright (c) Steve Scherf et al.
# Submitted via: ExactAudioCopy v1.0b3
#
DISCID=ed11e911
DTITLE=Kevin Costner and Modern West - Best of
DYEAR=2012
DGENRE=Country
TTITLE0=Turn It On
TTITLE1=Hey Man, What About You?
TTITLE2=Superman 14
TTITLE3=Top Down
TTITLE4=Maria Nay
TTITLE5=Let Me Be the One
TTITLE6=The Way You Love Me
TTITLE7=Indian Summer
TTITLE8=Moon So High
TTITLE9=Cleo at the Wheel
TTITLE10=The Hero
TTITLE11=The Angels Came Down
TTITLE12=Miles an Hour
TTITLE13=Long Hot Night
TTITLE14=Down in Nogales
TTITLE15=500 Nations (Live from Avo Sessions)
TTITLE16=The Sun Will Rise Again (Live)
EXTD=YEAR: 2012
EXTT0=
EXTT1=
EXTT2=
EXTT3=
EXTT4=
EXTT5=
EXTT6=
EXTT7=
EXTT8=
EXTT9=
EXTT10=
EXTT11=
EXTT12=
EXTT13=
EXTT14=
EXTT15=
EXTT16=
PLAYORDER=
